<?xml version="1.0" encoding="utf-8"?>
<svg viewBox="0 0 500 500" xmlns="http://www.w3.org/2000/svg">
  <ellipse style="fill: rgb(246, 233, 47);" cx="251.905" cy="227.937" rx="83.518" ry="226.692"/>
  <rect x="221.499" y="438.464" width="56.192" height="61.58" style="fill: rgb(92, 186, 93);"/>
  <path style="fill: rgb(92, 186, 93);" d="M 269.995 470.793 C 269.995 470.793 329.265 423.069 332.344 379.963 C 335.422 336.856 391.616 293.75 417.787 310.685 C 417.787 310.685 345.431 259.88 309.251 306.835 C 273.072 353.79 251.519 386.89 249.98 408.443 C 248.44 429.996 249.211 470.793 249.211 470.793 L 269.995 470.793 Z"/>
  <path style="fill: rgb(92, 186, 93);" d="M 109 287.159 C 109 287.159 166.158 333.182 169.126 374.751 C 172.095 416.321 226.285 457.891 251.523 441.559 C 251.523 441.559 181.747 490.553 146.857 445.272 C 111.968 399.991 91.183 368.071 89.698 347.286 C 88.214 326.502 88.957 287.159 88.957 287.159 L 109 287.159 Z" transform="matrix(-1, 0, 0, -1, 340.293991, 751.636383)"/>
</svg>