<?xml version="1.0" encoding="utf-8"?>
<svg viewBox="0 0 500 500" xmlns="http://www.w3.org/2000/svg">
  <rect x="239.619" y="41.355" width="9.913" height="456.741" style="fill: rgb(96, 197, 102);"/>
  <ellipse style="fill: rgb(240, 224, 44);" cx="202.449" cy="203.258" rx="8.769" ry="40.454" transform="matrix(0.769779, -0.63831, 0.63831, 0.769779, -79.690443, 189.154266)"/>
  <ellipse style="fill: rgb(240, 224, 44);" cx="202.449" cy="203.258" rx="8.769" ry="40.454" transform="matrix(-0.769779, -0.63831, -0.63831, 0.769779, 567.695787, 105.616231)"/>
  <path style="fill: rgb(96, 197, 102);" d="M 243.151 373.293 C 243.151 373.293 217.551 368.463 206.441 344.313 C 195.332 320.163 169.733 319.196 169.733 319.196 C 169.733 319.196 202.655 304.786 216.179 320.725 C 229.703 336.664 232.041 327.891 243.151 373.293 Z"/>
  <path style="fill: rgb(96, 197, 102);" d="M 241.853 268.858 C 241.853 268.858 220.579 261.434 209.47 237.284 C 198.36 213.133 143.357 214.329 143.357 214.329 C 143.357 214.329 198.333 202.514 211.856 218.453 C 225.38 234.39 230.744 223.456 241.853 268.858 Z"/>
  <path style="fill: rgb(96, 197, 102);" d="M 242.419 170.979 C 242.419 170.979 221.144 163.555 210.035 139.405 C 198.927 115.255 143.923 116.45 143.923 116.45 C 143.923 116.45 198.898 104.634 212.422 120.573 C 225.946 136.512 231.309 125.577 242.419 170.979 Z"/>
  <path style="fill: rgb(96, 197, 102);" d="M 240.887 92.101 C 240.887 92.101 226.038 92.93 214.929 68.779 C 203.82 44.629 176.523 43.097 176.523 43.097 C 176.523 43.097 202.655 32.081 216.179 48.02 C 229.703 63.959 229.778 46.7 240.887 92.101 Z"/>
  <path style="fill: rgb(96, 197, 102);" d="M 241.612 44.381 C 241.612 44.381 231.43 39.289 228.6 30.237 C 225.771 21.185 227.468 1.948 227.468 1.948 C 227.468 1.948 237.086 13.263 238.785 25.71 C 240.483 38.157 242.179 46.644 241.612 44.381 Z"/>
  <path style="fill: rgb(96, 197, 102);" d="M 245.574 43.815 C 245.574 43.815 246.706 26.275 254.061 20.054 C 261.416 13.83 268.77 9.302 268.77 9.302 C 268.77 9.302 269.338 20.619 261.982 29.671 C 254.627 38.723 247.27 42.683 245.574 43.815 Z"/>
  <path style="fill: rgb(96, 197, 102);" d="M 319.982 343.101 C 319.982 343.101 294.382 347.931 283.272 372.081 C 272.163 396.231 246.564 397.198 246.564 397.198 C 246.564 397.198 279.486 411.608 293.01 395.669 C 306.534 379.73 308.872 388.503 319.982 343.101 Z" transform="matrix(-1, 0, 0, -1, 566.54599, 746.273376)"/>
  <path style="fill: rgb(96, 197, 102);" d="M 346.123 225.969 C 346.123 225.969 324.849 233.393 313.74 257.543 C 302.63 281.694 247.627 280.498 247.627 280.498 C 247.627 280.498 302.603 292.313 316.126 276.374 C 329.65 260.437 335.014 271.371 346.123 225.969 Z" transform="matrix(-1, 0, 0, -1, 593.749985, 510.680573)"/>
  <path style="fill: rgb(96, 197, 102);" d="M 346.689 125.041 C 346.689 125.041 325.414 132.465 314.305 156.615 C 303.197 180.765 248.193 179.57 248.193 179.57 C 248.193 179.57 303.168 191.386 316.692 175.447 C 330.216 159.508 335.579 170.443 346.689 125.041 Z" transform="matrix(-1, 0, 0, -1, 594.881989, 308.825226)"/>
  <path style="fill: rgb(96, 197, 102);" d="M 309.791 44.27 C 309.791 44.27 294.942 43.441 283.833 67.592 C 272.724 91.742 245.427 93.274 245.427 93.274 C 245.427 93.274 271.559 104.29 285.083 88.351 C 298.607 72.412 298.682 89.671 309.791 44.27 Z" transform="matrix(-1, 0, 0, -1, 555.217987, 141.249329)"/>
</svg>