<?xml version="1.0" encoding="utf-8"?>
<svg viewBox="0 0 500 500" xmlns="http://www.w3.org/2000/svg">
  <rect x="373.339" y="166.33" width="112.529" height="43.187" style="fill: rgb(77, 76, 76);" transform="matrix(0.661254, 0.750162, -0.750162, 0.661254, 69.38475, -4.447453)"/>
  <rect x="189.255" y="183.591" width="99.003" height="203.34" style="fill: rgb(80, 109, 152);" rx="6.435" ry="6.435" transform="matrix(0.713674, -0.700478, 0.700478, 0.713674, -114.554504, 245.956436)"/>
  <rect x="143.336" y="156.409" width="74.982" height="173.234" style="fill: rgb(80, 109, 152);" rx="6.435" ry="6.435" transform="matrix(0.700478, 0.713674, -0.713674, 0.700478, 319.88858, 55.462639)"/>
  <rect x="152.179" y="0.653" width="116.194" height="251.36" style="fill: rgb(57, 142, 87);" rx="6.971" ry="6.971"/>
  <rect x="159.395" y="42.852" width="125.871" height="46.836" style="fill: rgb(64, 122, 84);" transform="matrix(0.694905, 0.719102, -0.719102, 0.694905, 138.547516, -116.799286)"/>
  <rect x="130.06" y="42.852" width="102.705" height="46.836" style="fill: rgb(64, 122, 84);" transform="matrix(0.934305, 0.356475, -0.356475, 0.934305, 182.700089, 20.538328)"/>
  <path style="stroke: rgb(0, 0, 0); fill: none; stroke-width: 5px;" d="M 380.559 164.139 L 393.016 293.108 L 448.708 324.617"/>
</svg>