<?xml version="1.0" encoding="utf-8"?>
<svg viewBox="0 0 500 500" xmlns="http://www.w3.org/2000/svg">
  <path style="fill: rgb(165, 117, 50);" d="M 204.124 499.56 C 204.124 499.56 246.419 361.708 234.585 183.469 C 222.752 5.231 212.398 0.793 212.398 0.793 C 212.398 0.793 253.075 35.553 257.512 142.793 C 261.95 250.034 243.73 487.851 262.96 499.685 L 204.124 499.56 Z"/>
  <path style="fill: rgb(181, 145, 93);" d="M 250.118 304.947 C 250.118 304.947 361.793 287.196 378.802 267.227 C 395.812 247.259 376.583 295.331 327.773 304.947 C 278.96 314.562 275.262 332.31 250.118 324.915 C 224.971 317.521 249.376 305.686 250.118 304.947 Z"/>
  <path style="fill: rgb(130, 98, 53);" d="M 250.856 251.698 C 250.856 251.698 296.711 212.498 304.106 199.185 C 311.503 185.873 323.333 174.041 348.48 177.738 C 373.626 181.436 389.896 185.134 407.646 184.395 C 425.398 183.654 363.272 171.822 363.272 171.822 C 363.272 171.822 361.052 152.592 378.063 148.894 C 395.074 145.197 423.179 127.448 423.179 127.448 C 423.179 127.448 381.021 131.145 365.492 142.98 C 349.962 154.814 348.48 163.687 348.48 163.687 C 348.48 163.687 324.815 157.03 302.627 178.479 C 280.44 199.926 254.553 209.54 254.553 209.54 L 250.856 251.698 Z"/>
  <path style="fill: rgb(130, 98, 53);" d="M 251.595 120.05 C 251.595 120.05 321.856 77.155 324.074 49.052 C 326.294 20.946 320.377 42.396 308.543 62.363 C 296.71 82.333 248.636 106 248.636 106 L 251.595 120.05 Z"/>
  <path style="fill: rgb(181, 145, 93);" d="M 232.366 80.853 C 232.366 80.853 190.211 63.843 179.855 43.135 C 169.501 22.426 176.156 70.501 202.782 77.155 C 229.408 83.812 233.845 88.989 233.845 88.989 L 232.366 80.853 Z"/>
  <path style="fill: rgb(181, 145, 93);" d="M 239.023 181.436 C 239.023 181.436 153.972 146.676 133.262 104.52 C 112.554 62.362 131.044 131.145 150.273 141.497 C 169.501 151.852 170.98 157.77 170.98 157.77 L 135.481 155.552 C 135.481 155.552 156.928 168.863 180.595 168.124 C 204.263 167.384 240.502 198.447 240.502 198.447 L 239.023 181.436 Z"/>
  <path style="fill: rgb(130, 98, 53);" d="M 242.72 270.186 C 242.72 270.186 172.46 251.698 141.398 228.03 C 110.335 204.363 135.481 235.426 150.273 241.343 C 165.064 247.259 230.887 278.323 239.76 285.716 C 248.636 293.112 243.46 269.447 242.72 270.186 Z"/>
</svg>