<?xml version="1.0" encoding="utf-8"?>
<svg viewBox="0 0 500 500" xmlns="http://www.w3.org/2000/svg" xmlns:bx="https://boxy-svg.com">
  <defs>
    <linearGradient id="color-0" gradientUnits="userSpaceOnUse" gradientTransform="matrix(27.043047, 0, 0, 64.189843, -2742.958252, -6170.324399)" bx:pinned="true">
      <title>Head</title>
      <stop style="stop-color: rgb(212, 169, 114);"/>
    </linearGradient>
    <linearGradient id="color-1" gradientUnits="userSpaceOnUse" gradientTransform="matrix(1.349544, 0, 0, 1.459873, -73.638107, -24.387988)" bx:pinned="true">
      <title>Body</title>
      <stop style="stop-color: rgb(146, 113, 71);"/>
    </linearGradient>
  </defs>
  <path d="M 478.399 124.38 L 499.556 160.345 L 457.241 160.345 L 478.399 124.38 Z" style="fill: rgb(255, 220, 45);" bx:shape="triangle 457.241 124.38 42.315 35.965 0.5 0 1@08050cb6"/>
  <ellipse style="fill: url(#color-0);" cx="439.807" cy="132.552" rx="39.67" ry="31.879"/>
  <ellipse style="" cx="443.208" cy="119.475" rx="7.556" ry="8.173"/>
  <path style="fill: url(#color-0);" d="M 443.964 145.63 C 443.964 145.63 474.189 314.015 409.961 299.301 C 345.734 284.587 347.245 251.891 347.245 251.891 C 347.245 251.891 411.473 254.345 402.405 130.917 L 443.964 145.63 Z"/>
  <path style="fill: rgb(225, 29, 29);" d="M 459.077 132.552 C 459.077 132.552 467.389 157.075 459.833 161.979 C 452.276 166.882 471.923 163.614 471.923 163.614 C 471.923 163.614 472.679 136.639 465.122 132.552 C 457.566 128.468 460.588 132.552 459.077 132.552 Z"/>
  <path style="fill: url(#color-0);" d="M 242.968 265.788 L 171.938 130.1 C 171.938 130.1 145.492 101.492 145.492 139.909 L 221.055 278.867 L 242.968 265.788 Z"/>
  <path style="fill: url(#color-0);" d="M 142.903 131.735 C 142.903 131.735 117.211 108.031 117.211 144.813 L 197.306 282.136 L 217.71 270.693 L 142.903 131.735 Z"/>
  <path style="fill: url(#color-0);" d="M 117.263 144.736 C 117.263 144.736 89.254 121.275 89.254 157.678 L 176.576 293.579 L 198.819 282.254 L 117.263 144.736 Z"/>
  <path style="fill: url(#color-0);" d="M 93.294 162.41 C 93.294 162.41 64.317 139.928 64.317 174.808 L 154.652 305.022 L 177.663 294.172 L 93.294 162.41 Z"/>
  <path style="fill: url(#color-0);" d="M 80.197 178.872 C 80.197 178.872 45.426 156.023 45.426 191.473 L 153.828 323.824 L 181.44 312.795 L 80.197 178.872 Z"/>
  <path style="fill: url(#color-0);" d="M 167.405 313.197 L 47.262 192.223 C 47.262 192.223 17.037 174.239 27.615 211.841 L 158.337 328.729 L 167.405 313.197 Z"/>
  <path style="fill: url(#color-0);" d="M 163.627 321.372 L 28.371 211.023 C 28.371 211.023 2.68 211.841 14.771 234.729 L 159.093 336.902 L 163.627 321.372 Z"/>
  <path style="fill: url(#color-0);" d="M 160.82 335.249 L 14.683 231.547 C 14.683 231.547 -7.529 226.489 3.577 252.414 L 159.651 343.471 L 160.82 335.249 Z"/>
  <path style="stroke: rgb(0, 0, 0); stroke-width: 5px;" d="M 294.591 433.496 L 295.178 496.981"/>
  <path style="fill: rgb(216, 216, 216); stroke: rgb(0, 0, 0); stroke-width: 5px;" d="M 278.157 496.981 L 325.695 496.981"/>
  <ellipse style="fill: url(#color-1);" cx="296.995" cy="338.129" rx="144.702" ry="109.123"/>
  <ellipse style="fill: url(#color-0);" cx="291.342" cy="357.65" rx="88.159" ry="51.497"/>
</svg>